<?xml version="1.0" standalone="no"?>
<!DOCTYPE svg PUBLIC "-//W3C//DTD SVG 20010904//EN"
 "http://www.w3.org/TR/2001/REC-SVG-20010904/DTD/svg10.dtd">
<svg version="1.0" xmlns="http://www.w3.org/2000/svg"
 width="95.000000pt" height="95.000000pt" viewBox="0 0 95.000000 95.000000"
 preserveAspectRatio="xMidYMid meet">
<metadata>
Created by potrace 1.11, written by Peter Selinger 2001-2013
</metadata>
<g transform="translate(0.000000,95.000000) scale(0.100000,-0.100000)"
fill="#000000" stroke="none">
<path d="M407 915 c-83 -23 -158 -66 -216 -124 -94 -95 -134 -203 -126 -346
11 -202 140 -356 346 -410 101 -27 210 -15 314 36 63 31 79 43 133 101 l34 36
-105 75 -105 75 -22 -23 c-67 -72 -184 -77 -272 -12 -94 70 -89 242 10 310 33
23 98 44 127 42 49 -4 90 -21 119 -49 20 -18 37 -30 38 -26 2 3 46 39 100 80
92 71 96 74 81 94 -30 39 -115 99 -176 124 -74 29 -205 37 -280 17z"/>
</g>
</svg>
